<?xml version="1.0" encoding="UTF-8"?>
<svg width="276px" height="75px" viewBox="0 0 276 75" version="1.1" xmlns="http://www.w3.org/2000/svg" xmlns:xlink="http://www.w3.org/1999/xlink">
    <!-- Generator: Sketch 49 (51002) - http://www.bohemiancoding.com/sketch -->
    <title>title</title>
    <desc>Created with Sketch.</desc>
    <defs>
        <polygon id="path-1" points="0 0.0678818182 14.2019968 0.0678818182 14.2019968 21.618665 0 21.618665"></polygon>
        <polygon id="path-3" points="0 56.7995035 249.745208 56.7995035 249.745208 0 0 0"></polygon>
        <linearGradient x1="50%" y1="-2.48949813e-15%" x2="50%" y2="100%" id="linearGradient-5">
            <stop stop-color="#EC1D24" offset="0%"></stop>
            <stop stop-color="#9F041B" offset="100%"></stop>
        </linearGradient>
    </defs>
    <g id="Page-1" stroke="none" stroke-width="1" fill="none" fill-rule="evenodd">
        <g id="Slices" transform="translate(-38.000000, -36.000000)">
            <g id="title" transform="translate(51.000000, 48.000000)">
                <g id="Group-3" transform="translate(0.000000, 18.932371)">
                    <mask id="mask-2" fill="white">
                        <use xlink:href="#path-1"></use>
                    </mask>
                    <g id="Clip-2"></g>
                    <path d="M0.288658147,20.4376091 L0.288658147,16.1737699 C1.73194888,16.922742 3.63730032,17.5561196 5.5134984,17.671714 C6.17763578,17.7004133 6.81222045,17.671714 7.36094249,17.5561196 C8.94880192,17.325728 9.87252396,16.7210497 9.87252396,15.7125881 C9.87252396,14.3298399 8.63091054,13.6091685 5.77308307,12.5724063 C2.13610224,11.2470566 -7.98722045e-05,9.72001469 -7.98722045e-05,6.11865105 C-7.98722045e-05,2.43079091 3.05982428,0.0678818182 7.53426518,0.0678818182 C9.61253994,0.0678818182 11.6620607,0.529063636 12.9607827,1.10544126 L12.9607827,5.19668601 C11.748722,4.47641329 9.78586262,3.92873497 7.88051118,3.92873497 C5.74432907,3.92873497 4.35894569,4.7642035 4.35894569,6.08955315 C4.35894569,7.29970699 5.48474441,8.13517552 8.31341853,9.20143427 C11.9507987,10.6128818 14.2019968,12.1399238 14.2019968,15.6260916 C14.2019968,19.3713503 11.3733227,21.618665 6.46597444,21.618665 C4.09936102,21.618665 1.78985623,21.1000846 0.288658147,20.4376091" id="Fill-1" fill="#FEFEFE" mask="url(#mask-2)"></path>
                </g>
                <polygon id="Fill-4" fill="#FEFEFE" points="22.7462859 27.5662762 22.7462859 40.1477308 18.3872604 40.1477308 18.3872604 15.0976259 31.261861 31.9851713 31.261861 19.4037168 35.6496406 19.4037168 35.6496406 44.4538217"></polygon>
                <mask id="mask-4" fill="white">
                    <use xlink:href="#path-3"></use>
                </mask>
                <g id="Clip-7"></g>
                <polygon id="Fill-6" fill="#FEFEFE" mask="url(#mask-4)" points="41.3071086 40.1479301 45.7523962 40.1479301 45.7523962 19.4039161 41.3071086 19.4039161"></polygon>
                <path d="M55.855631,23.1205552 L55.855631,29.314821 L58.3959665,29.314821 C60.3300719,29.314821 61.6579473,28.306758 61.6579473,26.2320378 C61.6579473,24.1577161 60.2721645,23.1205552 58.2805511,23.1205552 L55.855631,23.1205552 Z M55.855631,33.0600797 L55.855631,40.1476112 L51.4103435,40.1476112 L51.4103435,19.4039958 L58.1651358,19.4039958 C62.9566693,19.4039958 66.1607428,21.7665063 66.1607428,26.2320378 C66.1607428,30.6979678 62.9566693,33.0600797 58.1651358,33.0600797 L55.855631,33.0600797 Z" id="Fill-8" fill="#FEFEFE" mask="url(#mask-4)"></path>
                <path d="M70.1152157,19.4039161 L83.913139,19.4039161 L83.913139,23.1204755 L74.5605032,23.1204755 L70.1152157,19.4039161 Z M70.1152157,27.8458951 L83.913139,27.8458951 L83.913139,31.4185594 L74.5605032,31.4185594 L74.5605032,36.430972 L83.913139,36.430972 L83.913139,40.1479301 L70.1152157,40.1479301 L70.1152157,27.8458951 Z" id="Fill-9" fill="#FEFEFE" mask="url(#mask-4)"></path>
                <path d="M92.6019169,40.1477308 L88.2428914,40.1477308 L88.2428914,19.4037168 L95.5464058,19.4037168 C100.367093,19.4037168 103.571166,21.7953252 103.571166,26.2321573 C103.571166,29.2571434 101.868291,31.2453671 99.6162939,32.1382343 L101.514856,35.6271923 L99.2700479,40.1477308 L93.752476,29.2946119 L95.7772364,29.3149406 C97.7400958,29.3149406 99.0967252,28.3355769 99.0967252,26.2321573 C99.0967252,24.1578357 97.6821885,23.1206748 95.6618211,23.1206748 L92.6019169,23.1206748 L92.6019169,40.1477308 Z" id="Fill-10" fill="#FEFEFE" mask="url(#mask-4)"></path>
                <polygon id="Fill-11" fill="#FEFEFE" mask="url(#mask-4)" points="147.617971 40.1481294 147.617971 31.4761573 139.044489 31.4761573 139.044489 40.1481294 134.598802 40.1481294 134.598802 24.4699406 139.044489 19.4041154 139.044489 27.7882972 147.617971 27.7882972 147.617971 19.4041154 152.063259 19.4041154 152.063259 40.1481294"></polygon>
                <polygon id="Fill-12" fill="#FEFEFE" mask="url(#mask-4)" points="157.720447 40.1479301 162.166134 40.1479301 162.166134 19.4039161 157.720447 19.4039161"></polygon>
                <polygon id="Fill-13" fill="#FEFEFE" mask="url(#mask-4)" points="176.108347 23.1205552 176.108347 40.1480098 171.663059 40.1480098 171.663059 23.1205552 165.860743 23.1205552 165.860743 19.4039958 181.939417 19.4039958 181.939417 23.1205552"></polygon>
                <path d="M190.974401,29.4300566 L189.877356,28.4793923 L189.877356,40.1480497 L185.634145,40.1480497 L185.634145,19.086749 L185.720807,19.086749 L195.621765,29.0557699 L205.523123,19.086749 L205.609784,19.086749 L205.609784,40.1480497 L201.366174,40.1480497 L201.366174,28.4793923 L200.269129,29.4300566 C198.739177,31.1009937 197.180471,32.7723294 195.621765,34.4145671 C194.063059,32.7723294 192.533107,31.1009937 190.974401,29.4300566" id="Fill-14" fill="#FEFEFE" mask="url(#mask-4)"></path>
                <polygon id="Fill-15" fill="#FEFEFE" mask="url(#mask-4)" points="213.51881 40.1481294 208.871046 40.1481294 218.945727 19.0868287 219.11865 19.0868287 229.221685 40.1481294 224.57472 40.1481294 219.061142 28.408521"></polygon>
                <polygon id="Fill-16" fill="#FEFEFE" mask="url(#mask-4)" points="236.842013 27.5664755 236.842013 40.1479301 232.483387 40.1479301 232.483387 15.0978252 245.357588 31.9853706 245.357588 19.4039161 249.745367 19.4039161 249.745367 44.454021"></polygon>
                <path d="M132.855671,8.40518811 L132.862061,5.74731399 L131.923962,3.53786643 L131.722684,1.9028035 L130.738259,2.02318112 L126.264217,6.22603427 L125.561342,8.63677552 L124.44992,10.4320762 L124.610863,11.7426776 L123.78778,13.1728594 L122.84369,13.621286 L118.966693,25.3891951 L103.861262,56.7993839 L123.480671,21.5143909 L126.316933,17.5124329 L129.233866,14.1657755 L129.112859,13.1828245 L130.8377,10.9793559 L130.388818,10.0370622 L132.234265,8.81375455 L132.85008,8.40598531 L132.855671,8.40518811 Z M131.139617,24.2256776 L114.480671,53.8341881 L124.315735,33.6972441 L130.372444,18.0078944 L130.988259,17.6001252 L131.852077,16.4967965 L131.73147,15.5142441 L132.882428,14.0438035 L133.338099,12.3282231 L134.855272,11.1451741 L136.620447,9.26895734 L137.973083,9.43557273 L137.80615,10.7860343 L138.007029,12.4210972 L138.496645,13.6910413 L137.880431,14.0988105 L136.689137,15.2419993 L136.769409,15.8973 L135.332109,17.7328594 L135.453115,18.7154119 L133.072125,20.9993979 L131.139617,24.2256776 Z M123.4,4.5829993 L122.669169,1.35034196 L122.836502,0.000279020979 L121.852077,0.120656643 L118.894808,3.14006224 L117.3377,3.99585944 L116.922764,6.03869161 L115.771006,7.50953077 L116.260224,8.77947483 L115.06853,9.92266364 L114.452316,10.3308315 L112.467492,18.5448105 L100.078115,44.973279 L115.665974,17.4885168 L117.886022,13.8947266 L120.923562,11.5302231 L120.474681,10.588328 L122.199521,8.38446084 L121.790974,7.76981748 L123.308147,6.58676853 L123.924361,6.1786007 L123.395208,4.5837965 L123.4,4.5829993 Z" id="Fill-17" fill="url(#linearGradient-5)" mask="url(#mask-4)"></path>
            </g>
        </g>
    </g>
</svg>