<?xml version="1.0" encoding="UTF-8"?>
<svg width="22px" height="32px" viewBox="0 0 22 32" version="1.1" xmlns="http://www.w3.org/2000/svg" xmlns:xlink="http://www.w3.org/1999/xlink">
    <!-- Generator: Sketch 49 (51002) - http://www.bohemiancoding.com/sketch -->
    <title>icon-skull</title>
    <desc>Created with Sketch.</desc>
    <defs></defs>
    <g id="Page-1" stroke="none" stroke-width="1" fill="none" fill-rule="evenodd">
        <g id="Slices" transform="translate(-41.000000, -129.000000)" fill="#FFFFFF">
            <path d="M62.5944154,137.49594 L60.718849,133.268919 L60.0060121,132.547233 L58.8939736,132.9854 L59.8571023,133.913282 L57.0184073,134.557645 L58.4884458,133.732861 L57.9546089,132.877477 L59.2804822,131.484045 L55.6893303,129.4559 L51.8494681,129 L48.0096058,129.507449 L44.1111449,132.324912 L41.3136515,137.576315 L41,143.296608 L41.4752381,146.61187 L42.8755664,150.173578 L44.0826606,151.053128 L44.0414752,148.991167 L44.3456211,147.960186 L46.0184235,149.300461 L46.5760243,153.527482 L47.1716636,157.78172 L50.0262148,159.666476 L49.4305755,156.829671 L49.9073951,156.886053 L49.4147599,150.691922 L50.2337234,151.080152 L50.8055988,160.147833 L51.8510902,161 L52.958384,160.147833 L53.4399483,150.946537 L54.4331672,151.826087 L53.7916221,159.668138 L56.6224093,157.783382 L57.6774306,149.691834 L58.7926322,148.166313 L59.872999,148.625429 L60.009232,150.898411 L61.9925066,149.097412 L63,143.188656 L62.5944154,137.49594 Z M49.2409286,144.773047 L46.3172065,145.202532 L44.3332521,143.228886 L43.4,139.936709 L45.4035433,141.728191 L48.0939524,142.560422 L50.6,145.127321 L49.2409286,144.773047 Z M51.3069979,147.987872 L50.7579331,148.037975 L50.6,147.098191 L51.4,146.012658 L51.3069979,147.987872 Z M52.9555556,148.443038 L52.6888889,148.225492 L52.6,146.012658 L53.4,147.608575 L52.9555556,148.443038 Z M60.4206431,141.467467 L59.5822518,143.933648 L57.4466347,145.202532 L55.0057346,144.548579 L53.4,144.865798 L56.83764,142.092152 L60.6,139.531646 L60.4206431,141.467467 Z" id="icon-dead"></path>
        </g>
    </g>
</svg>