<?xml version="1.0" encoding="UTF-8"?>
<svg width="14px" height="19px" viewBox="0 0 14 19" version="1.1" xmlns="http://www.w3.org/2000/svg" xmlns:xlink="http://www.w3.org/1999/xlink">
    <!-- Generator: Sketch 49 (51002) - http://www.bohemiancoding.com/sketch -->
    <title>icon-alive</title>
    <desc>Created with Sketch.</desc>
    <defs></defs>
    <g id="Page-1" stroke="none" stroke-width="1" fill="none" fill-rule="evenodd">
        <g id="Slices" transform="translate(-80.000000, -136.000000)" fill="#FEFEFE">
            <path d="M93.8896,146.977957 L92.0286,146.733989 C92.0286,146.733989 92.239,141.416213 92.239,141.381043 C92.239,138.408957 89.8522,136 86.9156,136 C83.978,136 81.5992,138.409766 81.5992,141.381043 C81.5992,141.43784 81.782,146.722266 81.782,146.722266 L80,146.978968 L86.967,154.972309 L93.8896,146.977957 Z M83.2218,142.401585 C83.2218,141.983989 83.5554,141.647649 83.9678,141.647649 L85.6468,141.647649 C86.0592,141.647649 86.3928,141.984798 86.3928,142.401585 C86.3928,142.818574 86.0592,143.155723 85.6468,143.155723 L83.9678,143.155723 C83.5554,143.155723 83.2218,142.818574 83.2218,142.401585 Z M86.9218,148.51817 C85.7812,148.51817 84.9868,146.361266 84.9868,146.361266 C84.9868,145.617638 85.8122,145.013479 86.9218,145.013479 C88.0312,145.013479 88.8566,145.617638 88.8566,146.361266 C88.8566,146.361266 88.0624,148.51817 86.9218,148.51817 Z M89.8132,143.155926 L88.1342,143.155926 C87.7218,143.155926 87.389,142.818777 87.389,142.401787 C87.389,141.984191 87.7218,141.647649 88.1342,141.647649 L89.8132,141.647649 C90.2264,141.647649 90.5592,141.985 90.5592,142.401787 C90.5592,142.818777 90.2256,143.155926 89.8132,143.155926 Z" id="icon-alive"></path>
        </g>
    </g>
</svg>