<?xml version="1.0" encoding="UTF-8"?>
<svg width="360px" height="360px" viewBox="0 0 360 360" version="1.1" xmlns="http://www.w3.org/2000/svg" xmlns:xlink="http://www.w3.org/1999/xlink">
    <!-- Generator: Sketch 49 (51002) - http://www.bohemiancoding.com/sketch -->
    <title>sight</title>
    <desc>Created with Sketch.</desc>
    <defs></defs>
    <g id="Page-1" stroke="none" stroke-width="1" fill="none" fill-rule="evenodd">
        <g id="sight" fill="#000000">
            <path d="M0,0 L360,0 L360,360 L0,360 L0,0 Z M180,262 C225.287349,262 262,225.287349 262,180 C262,134.712651 225.287349,98 180,98 C134.712651,98 98,134.712651 98,180 C98,225.287349 134.712651,262 180,262 Z" id="mask-copy" opacity="0.75"></path>
            <g id="crosshair" opacity="0.8" transform="translate(106.000000, 106.000000)">
                <path d="M73.9998442,136.666739 C39.389971,136.666739 11.3330675,108.610109 11.3330675,74 C11.3330675,39.3899058 39.389971,11.3332911 73.9998442,11.3332911 C108.609732,11.3332911 136.666725,39.3899058 136.666725,74 C136.666725,108.610109 108.609732,136.666739 73.9998442,136.666739 M73.9999481,10.0680272 C38.6913547,10.0680272 10.0680272,38.6912889 10.0680272,74 C10.0680272,109.308711 38.6913547,137.931973 73.9999481,137.931973 C109.308527,137.931973 137.931973,109.308711 137.931973,74 C137.931973,38.6912889 109.308527,10.0680272 73.9999481,10.0680272" id="Fill-1"></path>
                <polygon id="Fill-5" points="79.5326695 19.6897234 79.5326695 19.2374798 74.6973928 19.2374798 74.6973928 0.000526825528 73.3024361 0.000526825528 73.3024361 19.2374798 68.4667761 19.2374798 68.4667761 19.6897234 73.3024361 19.6897234 73.3024361 30.3638579 68.4667761 30.3638579 68.4667761 30.8160867 73.3024361 30.8160867 73.3024361 47.7945814 68.4667761 47.7945814 68.4667761 48.2468102 73.3024361 48.2468102 73.3024361 58.5249697 68.4667761 58.5249697 68.4667761 58.9772132 73.3024361 58.9772132 73.3024361 64.8191033 73.9999145 71.4761268 74.6973928 64.8191033 74.6973928 58.9772132 79.5326695 58.9772132 79.5326695 58.5249697 74.6973928 58.5249697 74.6973928 48.2468102 79.5326695 48.2468102 79.5326695 47.7945814 74.6973928 47.7945814 74.6973928 30.8160867 79.5326695 30.8160867 79.5326695 30.3638579 74.6973928 30.3638579 74.6973928 19.6897234"></polygon>
                <polygon id="Fill-8" points="68.4669707 128.310824 68.4669707 128.763053 73.3024243 128.763053 73.3024243 148.000006 74.6973958 148.000006 74.6973958 128.763053 79.5330558 128.763053 79.5330558 128.310824 74.6973958 128.310824 74.6973958 117.63669 79.5330558 117.63669 79.5330558 117.184431 74.6973958 117.184431 74.6973958 100.205937 79.5330558 100.205937 79.5330558 99.7537225 74.6973958 99.7537225 74.6973958 89.4755483 79.5330558 89.4755483 79.5330558 89.0233195 74.6973958 89.0233195 74.6973958 83.1814147 73.9999174 76.5244207 73.3024243 83.1814147 73.3024243 89.0233195 68.4669707 89.0233195 68.4669707 89.4755483 73.3024243 89.4755483 73.3024243 99.7537225 68.4669707 99.7537225 68.4669707 100.205937 73.3024243 100.205937 73.3024243 117.184431 68.4669707 117.184431 68.4669707 117.63669 73.3024243 117.63669 73.3024243 128.310824"></polygon>
                <polygon id="Fill-11" points="19.6912225 68.462585 19.238932 68.462585 19.238932 73.3017601 0 73.3017601 0 74.6978562 19.238932 74.6978562 19.238932 79.537415 19.6912225 79.537415 19.6912225 74.6978562 30.3664633 74.6978562 30.3664633 79.537415 30.8187389 79.537415 30.8187389 74.6978562 47.7989934 74.6978562 47.7989934 79.537415 48.2512838 79.537415 48.2512838 74.6978562 58.5305086 74.6978562 58.5305086 79.537415 58.9827842 79.537415 58.9827842 74.6978562 64.8252798 74.6978562 71.4829932 73.9998008 64.8252798 73.3017601 58.9827842 73.3017601 58.9827842 68.462585 58.5305086 68.462585 58.5305086 73.3017601 48.2512838 73.3017601 48.2512838 68.462585 47.7989934 68.462585 47.7989934 73.3017601 30.8187389 73.3017601 30.8187389 68.462585 30.3664633 68.462585 30.3664633 73.3017601 19.6912225 73.3017601"></polygon>
                <polygon id="Fill-13" points="128.308717 79.537415 128.760992 79.537415 128.760992 74.6981319 148 74.6981319 148 73.3020452 128.760992 73.3020452 128.760992 68.462585 128.308717 68.462585 128.308717 73.3020452 117.633477 73.3020452 117.633477 68.462585 117.181202 68.462585 117.181202 73.3020452 100.200972 73.3020452 100.200972 68.462585 99.7486826 68.462585 99.7486826 73.3020452 89.4694727 73.3020452 89.4694727 68.462585 89.0171977 68.462585 89.0171977 73.3020452 83.1747106 73.3020452 76.5170068 74.0000738 83.1747106 74.6981319 89.0171977 74.6981319 89.0171977 79.537415 89.4694727 79.537415 89.4694727 74.6981319 99.7486826 74.6981319 99.7486826 79.537415 100.200972 79.537415 100.200972 74.6981319 117.181202 74.6981319 117.181202 79.537415 117.633477 79.537415 117.633477 74.6981319 128.308717 74.6981319"></polygon>
            </g>
        </g>
        <circle id="Oval-5" fill="#FF0000" cx="180" cy="180" r="1"></circle>
    </g>
</svg>