<?xml version="1.0" encoding="UTF-8"?>
<svg width="320px" height="320px" viewBox="0 0 320 320" version="1.1" xmlns="http://www.w3.org/2000/svg" xmlns:xlink="http://www.w3.org/1999/xlink">
    <!-- Generator: Sketch 49 (51002) - http://www.bohemiancoding.com/sketch -->
    <title>sight</title>
    <desc>Created with Sketch.</desc>
    <defs></defs>
    <g id="Page-1" stroke="none" stroke-width="1" fill="none" fill-rule="evenodd">
        <g id="sight" fill="#000000">
            <path d="M0,0 L320,0 L320,320 L0,320 L0,0 Z M160,217.855556 C191.952741,217.855556 217.855556,191.952741 217.855556,160 C217.855556,128.047259 191.952741,102.144444 160,102.144444 C128.047259,102.144444 102.144444,128.047259 102.144444,160 C102.144444,191.952741 128.047259,217.855556 160,217.855556 Z" id="mask-copy" opacity="0.75"></path>
            <g id="crosshair" opacity="0.8" transform="translate(108.000000, 108.000000)">
                <path d="M51.9998905,96.0360866 C27.6794391,96.0360866 7.96377715,76.3206172 7.96377715,52 C7.96377715,27.6793933 27.6794391,7.96393425 51.9998905,7.96393425 C76.3203524,7.96393425 96.0360769,27.6793933 96.0360769,52 C96.0360769,76.3206172 76.3203524,96.0360866 51.9998905,96.0360866 M51.9999635,7.07482993 C27.1885195,7.07482993 7.07482993,27.1884733 7.07482993,52 C7.07482993,76.8115267 27.1885195,96.9251701 51.9999635,96.9251701 C76.8113971,96.9251701 96.9251701,76.8115267 96.9251701,52 C96.9251701,27.1884733 76.8113971,7.07482993 51.9999635,7.07482993" id="Fill-1"></path>
                <polygon id="Fill-5" points="55.8878218 13.8360218 55.8878218 13.5182291 52.4900598 13.5182291 52.4900598 0.000370201722 51.50982 0.000370201722 51.50982 13.5182291 48.1117886 13.5182291 48.1117886 13.8360218 51.50982 13.8360218 51.50982 21.336765 48.1117886 21.336765 48.1117886 21.6545474 51.50982 21.6545474 51.50982 33.5853815 48.1117886 33.5853815 48.1117886 33.9031639 51.50982 33.9031639 51.50982 41.1256544 48.1117886 41.1256544 48.1117886 41.4434471 51.50982 41.4434471 51.50982 45.5485591 51.9999399 50.2264675 52.4900598 45.5485591 52.4900598 41.4434471 55.8878218 41.4434471 55.8878218 41.1256544 52.4900598 41.1256544 52.4900598 33.9031639 55.8878218 33.9031639 55.8878218 33.5853815 52.4900598 33.5853815 52.4900598 21.6545474 55.8878218 21.6545474 55.8878218 21.336765 52.4900598 21.336765 52.4900598 13.8360218"></polygon>
                <polygon id="Fill-8" points="48.1119254 90.1643629 48.1119254 90.4821453 51.5098117 90.4821453 51.5098117 104.000004 52.4900619 104.000004 52.4900619 90.4821453 55.8880933 90.4821453 55.8880933 90.1643629 52.4900619 90.1643629 52.4900619 82.6636197 55.8880933 82.6636197 55.8880933 82.3458166 52.4900619 82.3458166 52.4900619 70.4149824 55.8880933 70.4149824 55.8880933 70.0972104 52.4900619 70.0972104 52.4900619 62.8747096 55.8880933 62.8747096 55.8880933 62.5569272 52.4900619 62.5569272 52.4900619 58.4518049 51.999942 53.7739173 51.5098117 58.4518049 51.5098117 62.5569272 48.1119254 62.5569272 48.1119254 62.8747096 51.5098117 62.8747096 51.5098117 70.0972104 48.1119254 70.0972104 48.1119254 70.4149824 51.5098117 70.4149824 51.5098117 82.3458166 48.1119254 82.3458166 48.1119254 82.6636197 51.5098117 82.6636197 51.5098117 90.1643629"></polygon>
                <polygon id="Fill-11" points="13.8370752 48.1088435 13.5192495 48.1088435 13.5192495 51.5093449 0 51.5093449 0 52.4903854 13.5192495 52.4903854 13.5192495 55.8911565 13.8370752 55.8911565 13.8370752 52.4903854 21.3385958 52.4903854 21.3385958 55.8911565 21.6564112 55.8911565 21.6564112 52.4903854 33.5884819 52.4903854 33.5884819 55.8911565 33.9063076 55.8911565 33.9063076 52.4903854 41.1295466 52.4903854 41.1295466 55.8911565 41.4473619 55.8911565 41.4473619 52.4903854 45.5528993 52.4903854 50.2312925 51.99986 45.5528993 51.5093449 41.4473619 51.5093449 41.4473619 48.1088435 41.1295466 48.1088435 41.1295466 51.5093449 33.9063076 51.5093449 33.9063076 48.1088435 33.5884819 48.1088435 33.5884819 51.5093449 21.6564112 51.5093449 21.6564112 48.1088435 21.3385958 48.1088435 21.3385958 51.5093449 13.8370752 51.5093449"></polygon>
                <polygon id="Fill-13" points="90.1628825 55.8911565 90.4806974 55.8911565 90.4806974 52.4905792 104 52.4905792 104 51.5095453 90.4806974 51.5095453 90.4806974 48.1088435 90.1628825 48.1088435 90.1628825 51.5095453 82.6613624 51.5095453 82.6613624 48.1088435 82.3435475 48.1088435 82.3435475 51.5095453 70.4114941 51.5095453 70.4114941 48.1088435 70.0936688 48.1088435 70.0936688 51.5095453 62.8704403 51.5095453 62.8704403 48.1088435 62.5526254 48.1088435 62.5526254 51.5095453 58.4470939 51.5095453 53.7687075 52.0000519 58.4470939 52.4905792 62.5526254 52.4905792 62.5526254 55.8911565 62.8704403 55.8911565 62.8704403 52.4905792 70.0936688 52.4905792 70.0936688 55.8911565 70.4114941 55.8911565 70.4114941 52.4905792 82.3435475 52.4905792 82.3435475 55.8911565 82.6613624 55.8911565 82.6613624 52.4905792 90.1628825 52.4905792"></polygon>
            </g>
        </g>
        <circle id="Oval-5" fill="#FF0000" cx="160" cy="160" r="1"></circle>
    </g>
</svg>