<?xml version="1.0" encoding="UTF-8"?>
<svg width="77px" height="57px" viewBox="0 0 77 57" version="1.1" xmlns="http://www.w3.org/2000/svg" xmlns:xlink="http://www.w3.org/1999/xlink">
    <!-- Generator: Sketch 49 (51002) - http://www.bohemiancoding.com/sketch -->
    <title>Page 1 Copy</title>
    <desc>Created with Sketch.</desc>
    <defs>
        <polygon id="path-1" points="0 56.7373272 76.8206886 56.7373272 76.8206886 0.116626728 0 0.116626728"></polygon>
    </defs>
    <g id="Page-1" stroke="none" stroke-width="1" fill="none" fill-rule="evenodd">
        <g id="Page-1-Copy">
            <path d="M40.2568256,0.382924424 L37.2724761,3.39262949 L35.7005038,4.24579078 L35.2819329,6.28229309 L34.1197391,7.74827005 L34.613445,9.014353 L33.4107529,10.1540903 L32.7891578,10.5607078 L30.7858256,18.7490074 L18.2822512,45.094565 L34.0136976,17.6959521 L36.2541578,14.1136203 L39.3197702,11.7566571 L38.8665626,10.8173392 L40.6074554,8.62060645 L40.1950125,8.00805346 L41.7262201,6.82838986 L42.3478152,6.42177235 L41.8141439,4.83181382 L41.8189398,4.83076313 L41.081445,1.60855576 L41.250099,0.262620276 L40.2568256,0.382924424 Z M49.2250609,2.27942212 L44.7095038,6.46879078 L44.0005176,8.87172166 L42.8785557,10.6620995 L43.0410817,11.9678461 L42.2100678,13.3941594 L41.2575592,13.8409659 L37.3446803,25.5719336 L22.1002789,56.8833207 L41.9004692,21.7090673 L44.762791,17.7198553 L47.7061093,14.3836479 L47.5843481,13.404141 L49.3252408,11.2074083 L48.8720332,10.2680903 L50.7346872,9.04850046 L51.3562824,8.64188295 L51.3616111,8.6413576 L51.3677391,5.99177696 L50.4213585,3.78900276 L50.2186007,2.15938065 L49.2250609,2.27942212 Z M53.3795972,11.3723668 L51.8486561,12.5517677 L51.389054,14.2617677 L50.2268602,15.72827 L50.3486215,16.707777 L49.4773758,17.8073253 L48.8555142,18.2139429 L42.7432062,33.8540074 L32.8174,53.9274636 L49.6300436,24.4122332 L51.5800886,21.1955419 L53.9830747,18.9189567 L53.8613135,17.9397124 L55.3115246,16.109671 L55.2302616,15.456929 L56.4329536,14.3171917 L57.0548152,13.9103115 L56.5608429,12.6442286 L56.3578187,11.0146065 L56.5264727,9.66867097 L55.1612547,9.50213641 L53.3795972,11.3723668 Z" id="Fill-1" fill="#EC1D24"></path>
            <g id="Group-17" transform="translate(0.000000, 0.146046)">
                <path d="M3.82290346,26.3754235 L3.82290346,23.5656124 C4.78580311,24.0591747 6.0569692,24.4765618 7.30868547,24.5527369 C7.75176851,24.5716493 8.17513529,24.5527369 8.54121834,24.4765618 C9.60056782,24.3247369 10.2168343,23.9262622 10.2168343,23.2617 C10.2168343,22.350488 9.38848478,21.8755756 7.48186886,21.1923636 C5.05543633,20.3187138 3.63027024,19.3124143 3.63027024,16.9391654 C3.63027024,14.5091793 5.67170277,12.9520548 8.65685156,12.9520548 C10.0433844,12.9520548 11.4107339,13.2559673 12.2771837,13.6357922 L12.2771837,16.3318659 C11.4685505,15.8572161 10.1590176,15.4963037 8.88785156,15.4963037 C7.46268547,15.4963037 6.53841903,16.0468659 6.53841903,16.920253 C6.53841903,17.7177276 7.28950208,18.2682899 9.17666817,18.9709396 C11.6033671,19.9010641 13.1052668,20.9073636 13.1052668,23.2047 C13.1052668,25.6727737 11.2181007,27.153723 7.94413529,27.153723 C6.36523564,27.153723 4.82443633,26.8119857 3.82290346,26.3754235" id="Fill-2" fill="#FEFEFE"></path>
                <polygon id="Fill-4" fill="#FEFEFE" points="18.8056381 18.5970774 18.8056381 26.8878194 15.8974893 26.8878194 15.8974893 10.3801465 24.4868526 21.5090682 24.4868526 13.2180636 27.4141848 13.2180636 27.4141848 29.7254737"></polygon>
                <mask id="mask-2" fill="white">
                    <use xlink:href="#path-1"></use>
                </mask>
                <g id="Clip-7"></g>
                <polygon id="Fill-6" fill="#FEFEFE" mask="url(#mask-2)" points="31.1887301 26.887977 34.1544291 26.887977 34.1544291 13.2179585 31.1887301 13.2179585"></polygon>
                <path d="M40.8947266,15.6672774 L40.8947266,19.7492129 L42.5892595,19.7492129 C43.879609,19.7492129 44.7655087,19.0846507 44.7655087,17.7177014 C44.7655087,16.3507521 43.8412422,15.6672774 42.5122595,15.6672774 L40.8947266,15.6672774 Z M40.8947266,22.2172866 L40.8947266,26.8878719 L37.9290277,26.8878719 L37.9290277,13.2181161 L42.4352595,13.2181161 C45.6322249,13.2181161 47.7698408,14.7749779 47.7698408,17.7177014 C47.7698408,20.6604249 45.6322249,22.2172866 42.4352595,22.2172866 L40.8947266,22.2172866 Z" id="Fill-8" fill="#FEFEFE" mask="url(#mask-2)"></path>
                <path d="M50.40809,13.2180636 L59.6134533,13.2180636 L59.6134533,15.6672249 L53.3737889,15.6672249 L50.40809,13.2180636 Z M50.40809,18.7809484 L59.6134533,18.7809484 L59.6134533,21.1352848 L53.3737889,21.1352848 L53.3737889,24.4386581 L59.6134533,24.4386581 L59.6134533,26.888082 L50.40809,26.888082 L50.40809,18.7809484 Z" id="Fill-9" fill="#FEFEFE" mask="url(#mask-2)"></path>
                <path d="M65.4102211,26.8879507 L62.5020723,26.8879507 L62.5020723,13.2179323 L67.3743872,13.2179323 C70.590536,13.2179323 72.7284183,14.7939691 72.7284183,17.7177802 C72.7284183,19.7112041 71.5920689,21.0211535 70.0896363,21.6098032 L73.1904183,26.8879507 L69.8586363,26.8879507 L66.1780896,19.7356327 L67.5283872,19.749029 C68.8379201,19.749029 69.7432696,19.1036419 69.7432696,17.7177802 C69.7432696,16.3508309 68.7995533,15.6673562 67.4513872,15.6673562 L65.4102211,15.6673562 L65.4102211,26.8879507 Z" id="Fill-10" fill="#FEFEFE" mask="url(#mask-2)"></path>
                <polygon id="Fill-11" fill="#FEFEFE" mask="url(#mask-2)" points="8.68575986 46.1289968 8.68575986 40.4142871 2.96591211 40.4142871 2.96591211 46.1289968 -5.32871984e-05 46.1289968 -5.32871984e-05 35.7972871 2.96591211 32.4589783 2.96591211 37.9840382 8.68575986 37.9840382 8.68575986 32.4589783 11.6514588 32.4589783 11.6514588 46.1289968"></polygon>
                <polygon id="Fill-12" fill="#FEFEFE" mask="url(#mask-2)" points="15.4258443 46.129023 18.3918097 46.129023 18.3918097 32.4590046 15.4258443 32.4590046"></polygon>
                <polygon id="Fill-13" fill="#FEFEFE" mask="url(#mask-2)" points="27.6932765 34.9081922 27.6932765 46.1290493 24.7275775 46.1290493 24.7275775 34.9081922 20.8565291 34.9081922 20.8565291 32.4590309 31.5835083 32.4590309 31.5835083 34.9081922"></polygon>
                <path d="M37.6112228,39.0660664 L36.8793232,38.4395917 L36.8793232,46.1290756 L34.0484408,46.1290756 L34.0484408,32.2502323 L34.1062574,32.2502323 L40.711472,38.8194166 L47.3172194,32.2502323 L47.375036,32.2502323 L47.375036,46.1290756 L44.5438872,46.1290756 L44.5438872,38.4395917 L43.812254,39.0660664 C42.7915377,40.1671908 41.7516381,41.2685779 40.711472,42.3507899 C39.6718388,41.2685779 38.6511225,40.1671908 37.6112228,39.0660664" id="Fill-14" fill="#FEFEFE" mask="url(#mask-2)"></path>
                <polygon id="Fill-15" fill="#FEFEFE" mask="url(#mask-2)" points="52.6517208 46.1289968 49.5509388 46.1289968 56.2723194 32.2501535 56.3876862 32.2501535 63.1279837 46.1289968 60.0277346 46.1289968 56.3493194 38.3930198"></polygon>
                <polygon id="Fill-16" fill="#FEFEFE" mask="url(#mask-2)" points="68.2122218 37.8381235 68.2122218 46.1288654 65.3043394 46.1288654 65.3043394 29.6211926 73.8934363 40.7501143 73.8934363 32.458847 76.8207685 32.458847 76.8207685 48.9665198"></polygon>
            </g>
        </g>
    </g>
</svg>